<svg xmlns="http://www.w3.org/2000/svg" width="400" height="400" display="block">
    <g fill-rule="evenodd">
        <path fill="#dc445c" d="M36.8 18.2v6.2H24.4v12.4H12v14h12.4v12.4h12.4v12.4h14V63.2h12.4V50.8h12.4v-14H63.2V24.4H50.8V12h-14v6.2"/>
        <path fill="#3c4cc4" d="M112 18.2v6.2H99.2v12.4H86.8v14h12.4v12.4H112v12.4h13.6V63.2h12.8V50.8h12.4v-14h-12.4V24.4h-12.8V12H112v6.2"/>
        <path fill="#f48c34" d="M36.8 93v6.2H24.4V112H12v13.6h12.4v12.8h12.4v12.4h14v-12.4h12.4v-12.8h12.4V112H63.2V99.2H50.8V86.8h-14V93"/>
        <path fill="#242434" d="M112 92.99v6.19l-6.3.11-6.3.11-.11 6.3-.11 6.3H86.8v13.6h12.38l.11 6.3.11 6.3 6.3.11 6.3.11v12.38h13.6v-12.38l6.3-.11 6.3-.11.11-6.3.11-6.3h12.38V112h-12.38l-.11-6.3-.11-6.3-6.3-.11-6.3-.11V86.8H112v6.19"/>
    </g>
</svg>
